<svg width="21" height="21" viewBox="0 0 21 21" fill="none" xmlns="http://www.w3.org/2000/svg">
<path d="M10.5 16C7.46243 16 5 13.5376 5 10.5C5 7.46243 7.46243 5 10.5 5C13.5376 5 16 7.46243 16 10.5C16 13.5376 13.5376 16 10.5 16ZM10.5 15C12.9853 15 15 12.9853 15 10.5C15 8.01472 12.9853 6 10.5 6C8.01472 6 6 8.01472 6 10.5C6 12.9853 8.01472 15 10.5 15ZM11 3.5C11 3.77614 10.7761 4 10.5 4C10.2239 4 10 3.77614 10 3.5V0.5C10 0.223858 10.2239 0 10.5 0C10.7761 0 11 0.223858 11 0.5V3.5ZM11 20.5C11 20.7761 10.7761 21 10.5 21C10.2239 21 10 20.7761 10 20.5V17.5C10 17.2239 10.2239 17 10.5 17C10.7761 17 11 17.2239 11 17.5V20.5ZM15.8033 5.90381C15.608 6.09907 15.2915 6.09907 15.0962 5.90381C14.9009 5.70854 14.9009 5.39196 15.0962 5.1967L17.1464 3.14645C17.3417 2.95118 17.6583 2.95118 17.8536 3.14645C18.0488 3.34171 18.0488 3.65829 17.8536 3.85355L15.8033 5.90381ZM3.85355 17.8536C3.65829 18.0488 3.34171 18.0488 3.14645 17.8536C2.95118 17.6583 2.95118 17.3417 3.14645 17.1464L5.1967 15.0962C5.39196 14.9009 5.70854 14.9009 5.90381 15.0962C6.09907 15.2915 6.09907 15.608 5.90381 15.8033L3.85355 17.8536ZM17.5 11C17.2239 11 17 10.7761 17 10.5C17 10.2239 17.2239 10 17.5 10H20.5C20.7761 10 21 10.2239 21 10.5C21 10.7761 20.7761 11 20.5 11H17.5ZM0.5 11C0.223858 11 0 10.7761 0 10.5C0 10.2239 0.223858 10 0.5 10H3.5C3.77614 10 4 10.2239 4 10.5C4 10.7761 3.77614 11 3.5 11H0.5ZM15.0962 15.8033C14.9009 15.608 14.9009 15.2915 15.0962 15.0962C15.2915 14.9009 15.608 14.9009 15.8033 15.0962L17.8536 17.1464C18.0488 17.3417 18.0488 17.6583 17.8536 17.8536C17.6583 18.0488 17.3417 18.0488 17.1464 17.8536L15.0962 15.8033ZM3.14645 3.85355C2.95118 3.65829 2.95118 3.34171 3.14645 3.14645C3.34171 2.95118 3.65829 2.95118 3.85355 3.14645L5.90381 5.1967C6.09907 5.39196 6.09907 5.70854 5.90381 5.90381C5.70854 6.09907 5.39196 6.09907 5.1967 5.90381L3.14645 3.85355Z" fill="white"/>
</svg>
